<svg id="visual" viewBox="0 0 960 300" width="960" height="300" xmlns="http://www.w3.org/2000/svg" xmlns:xlink="http://www.w3.org/1999/xlink" version="1.1"><rect x="0" y="0" width="960" height="300" fill="#fff"></rect><path d="M0 89L137 134L274 144L411 145L549 107L686 118L823 124L960 134L960 0L823 0L686 0L549 0L411 0L274 0L137 0L0 0Z" fill="#ffffff"></path><path d="M0 79L137 83L274 86L411 96L549 106L686 75L823 89L960 76L960 0L823 0L686 0L549 0L411 0L274 0L137 0L0 0Z" fill="#c8c1d4"></path><path d="M0 76L137 67L274 85L411 58L549 86L686 66L823 77L960 85L960 0L823 0L686 0L549 0L411 0L274 0L137 0L0 0Z" fill="#9286ab"></path><path d="M0 35L137 68L274 53L411 53L549 36L686 63L823 63L960 40L960 0L823 0L686 0L549 0L411 0L274 0L137 0L0 0Z" fill="#5e5083"></path><path d="M0 41L137 25L274 27L411 38L549 35L686 19L823 27L960 36L960 0L823 0L686 0L549 0L411 0L274 0L137 0L0 0Z" fill="#2a1e5c"></path></svg>