<svg id="visual" viewBox="0 0 960 300" width="960" height="300" xmlns="http://www.w3.org/2000/svg" xmlns:xlink="http://www.w3.org/1999/xlink" version="1.1"><rect x="0" y="0" width="960" height="300" fill="#2374AB"></rect><path d="M0 162L22.8 174C45.7 186 91.3 210 137 210.8C182.7 211.7 228.3 189.3 274 179.8C319.7 170.3 365.3 173.7 411.2 173C457 172.3 503 167.7 548.8 175C594.7 182.3 640.3 201.7 686 200C731.7 198.3 777.3 175.7 823 179.5C868.7 183.3 914.3 213.7 937.2 228.8L960 244L960 0L937.2 0C914.3 0 868.7 0 823 0C777.3 0 731.7 0 686 0C640.3 0 594.7 0 548.8 0C503 0 457 0 411.2 0C365.3 0 319.7 0 274 0C228.3 0 182.7 0 137 0C91.3 0 45.7 0 22.8 0L0 0Z" fill="#2374ab"></path><path d="M0 155L22.8 148.8C45.7 142.7 91.3 130.3 137 138.7C182.7 147 228.3 176 274 176.3C319.7 176.7 365.3 148.3 411.2 145C457 141.7 503 163.3 548.8 165.5C594.7 167.7 640.3 150.3 686 153C731.7 155.7 777.3 178.3 823 178.3C868.7 178.3 914.3 155.7 937.2 144.3L960 133L960 0L937.2 0C914.3 0 868.7 0 823 0C777.3 0 731.7 0 686 0C640.3 0 594.7 0 548.8 0C503 0 457 0 411.2 0C365.3 0 319.7 0 274 0C228.3 0 182.7 0 137 0C91.3 0 45.7 0 22.8 0L0 0Z" fill="#0089ae"></path><path d="M0 152L22.8 143.2C45.7 134.3 91.3 116.7 137 106.5C182.7 96.3 228.3 93.7 274 100.2C319.7 106.7 365.3 122.3 411.2 125C457 127.7 503 117.3 548.8 113.2C594.7 109 640.3 111 686 111.3C731.7 111.7 777.3 110.3 823 116.7C868.7 123 914.3 137 937.2 144L960 151L960 0L937.2 0C914.3 0 868.7 0 823 0C777.3 0 731.7 0 686 0C640.3 0 594.7 0 548.8 0C503 0 457 0 411.2 0C365.3 0 319.7 0 274 0C228.3 0 182.7 0 137 0C91.3 0 45.7 0 22.8 0L0 0Z" fill="#009ca6"></path><path d="M0 76L22.8 74.2C45.7 72.3 91.3 68.7 137 72.2C182.7 75.7 228.3 86.3 274 88.8C319.7 91.3 365.3 85.7 411.2 85.7C457 85.7 503 91.3 548.8 96.7C594.7 102 640.3 107 686 107.3C731.7 107.7 777.3 103.3 823 95.2C868.7 87 914.3 75 937.2 69L960 63L960 0L937.2 0C914.3 0 868.7 0 823 0C777.3 0 731.7 0 686 0C640.3 0 594.7 0 548.8 0C503 0 457 0 411.2 0C365.3 0 319.7 0 274 0C228.3 0 182.7 0 137 0C91.3 0 45.7 0 22.8 0L0 0Z" fill="#39ab95"></path><path d="M0 52L22.8 53.5C45.7 55 91.3 58 137 57.5C182.7 57 228.3 53 274 49.8C319.7 46.7 365.3 44.3 411.2 42.3C457 40.3 503 38.7 548.8 36.8C594.7 35 640.3 33 686 36.2C731.7 39.3 777.3 47.7 823 50.3C868.7 53 914.3 50 937.2 48.5L960 47L960 0L937.2 0C914.3 0 868.7 0 823 0C777.3 0 731.7 0 686 0C640.3 0 594.7 0 548.8 0C503 0 457 0 411.2 0C365.3 0 319.7 0 274 0C228.3 0 182.7 0 137 0C91.3 0 45.7 0 22.8 0L0 0Z" fill="#70b77e"></path></svg>