<svg id="visual" viewBox="0 0 960 300" width="960" height="300" xmlns="http://www.w3.org/2000/svg" xmlns:xlink="http://www.w3.org/1999/xlink" version="1.1"><rect x="0" y="0" width="960" height="300" fill="#fff"></rect><path d="M0 177L22.8 181.2C45.7 185.3 91.3 193.7 137 198.7C182.7 203.7 228.3 205.3 274 202.2C319.7 199 365.3 191 411.2 190.7C457 190.3 503 197.7 548.8 202.8C594.7 208 640.3 211 686 209.3C731.7 207.7 777.3 201.3 823 199.2C868.7 197 914.3 199 937.2 200L960 201L960 301L937.2 301C914.3 301 868.7 301 823 301C777.3 301 731.7 301 686 301C640.3 301 594.7 301 548.8 301C503 301 457 301 411.2 301C365.3 301 319.7 301 274 301C228.3 301 182.7 301 137 301C91.3 301 45.7 301 22.8 301L0 301Z" fill="#ffffff"></path><path d="M0 236L22.8 233C45.7 230 91.3 224 137 219C182.7 214 228.3 210 274 207.7C319.7 205.3 365.3 204.7 411.2 204C457 203.3 503 202.7 548.8 208.5C594.7 214.3 640.3 226.7 686 227.3C731.7 228 777.3 217 823 214C868.7 211 914.3 216 937.2 218.5L960 221L960 301L937.2 301C914.3 301 868.7 301 823 301C777.3 301 731.7 301 686 301C640.3 301 594.7 301 548.8 301C503 301 457 301 411.2 301C365.3 301 319.7 301 274 301C228.3 301 182.7 301 137 301C91.3 301 45.7 301 22.8 301L0 301Z" fill="#dbedde"></path><path d="M0 251L22.8 247.7C45.7 244.3 91.3 237.7 137 232.7C182.7 227.7 228.3 224.3 274 222.3C319.7 220.3 365.3 219.7 411.2 224C457 228.3 503 237.7 548.8 238.7C594.7 239.7 640.3 232.3 686 233C731.7 233.7 777.3 242.3 823 244.7C868.7 247 914.3 243 937.2 241L960 239L960 301L937.2 301C914.3 301 868.7 301 823 301C777.3 301 731.7 301 686 301C640.3 301 594.7 301 548.8 301C503 301 457 301 411.2 301C365.3 301 319.7 301 274 301C228.3 301 182.7 301 137 301C91.3 301 45.7 301 22.8 301L0 301Z" fill="#b8dbbd"></path><path d="M0 250L22.8 252.2C45.7 254.3 91.3 258.7 137 259.7C182.7 260.7 228.3 258.3 274 257.8C319.7 257.3 365.3 258.7 411.2 259.2C457 259.7 503 259.3 548.8 256.5C594.7 253.7 640.3 248.3 686 247C731.7 245.7 777.3 248.3 823 248.2C868.7 248 914.3 245 937.2 243.5L960 242L960 301L937.2 301C914.3 301 868.7 301 823 301C777.3 301 731.7 301 686 301C640.3 301 594.7 301 548.8 301C503 301 457 301 411.2 301C365.3 301 319.7 301 274 301C228.3 301 182.7 301 137 301C91.3 301 45.7 301 22.8 301L0 301Z" fill="#95c99d"></path><path d="M0 286L22.8 285.3C45.7 284.7 91.3 283.3 137 281C182.7 278.7 228.3 275.3 274 273.5C319.7 271.7 365.3 271.3 411.2 272.8C457 274.3 503 277.7 548.8 277.5C594.7 277.3 640.3 273.7 686 273.2C731.7 272.7 777.3 275.3 823 274.8C868.7 274.3 914.3 270.7 937.2 268.8L960 267L960 301L937.2 301C914.3 301 868.7 301 823 301C777.3 301 731.7 301 686 301C640.3 301 594.7 301 548.8 301C503 301 457 301 411.2 301C365.3 301 319.7 301 274 301C228.3 301 182.7 301 137 301C91.3 301 45.7 301 22.8 301L0 301Z" fill="#70b77e"></path></svg>