<svg id="visual" viewBox="0 0 960 300" width="960" height="300" xmlns="http://www.w3.org/2000/svg" xmlns:xlink="http://www.w3.org/1999/xlink" version="1.1"><rect x="0" y="0" width="960" height="300" fill="#FFFCF7"></rect><path d="M0 209L137 164L274 154L411 153L549 191L686 180L823 174L960 164L960 301L823 301L686 301L549 301L411 301L274 301L137 301L0 301Z" fill="#fffcf7"></path><path d="M0 219L137 215L274 212L411 202L549 192L686 223L823 209L960 222L960 301L823 301L686 301L549 301L411 301L274 301L137 301L0 301Z" fill="#d8bcb0"></path><path d="M0 222L137 231L274 213L411 240L549 212L686 232L823 221L960 213L960 301L823 301L686 301L549 301L411 301L274 301L137 301L0 301Z" fill="#b37c81"></path><path d="M0 263L137 230L274 245L411 245L549 262L686 235L823 235L960 258L960 301L823 301L686 301L549 301L411 301L274 301L137 301L0 301Z" fill="#7e446a"></path><path d="M0 257L137 273L274 271L411 260L549 263L686 279L823 271L960 262L960 301L823 301L686 301L549 301L411 301L274 301L137 301L0 301Z" fill="#2a1e5c"></path></svg>