<svg id="visual" viewBox="0 0 960 300" width="960" height="300" xmlns="http://www.w3.org/2000/svg" xmlns:xlink="http://www.w3.org/1999/xlink" version="1.1"><rect x="0" y="0" width="960" height="300" fill="#fff"></rect><path d="M0 123L22.8 118C45.7 113 91.3 103 137 100C182.7 97 228.3 101 274 102.8C319.7 104.7 365.3 104.3 411.2 101.7C457 99 503 94 548.8 93.3C594.7 92.7 640.3 96.3 686 96.2C731.7 96 777.3 92 823 93C868.7 94 914.3 100 937.2 103L960 106L960 0L937.2 0C914.3 0 868.7 0 823 0C777.3 0 731.7 0 686 0C640.3 0 594.7 0 548.8 0C503 0 457 0 411.2 0C365.3 0 319.7 0 274 0C228.3 0 182.7 0 137 0C91.3 0 45.7 0 22.8 0L0 0Z" fill="#ffffff"></path><path d="M0 76L22.8 77.3C45.7 78.7 91.3 81.3 137 78.8C182.7 76.3 228.3 68.7 274 65.7C319.7 62.7 365.3 64.3 411.2 69.8C457 75.3 503 84.7 548.8 86.2C594.7 87.7 640.3 81.3 686 81.8C731.7 82.3 777.3 89.7 823 93C868.7 96.3 914.3 95.7 937.2 95.3L960 95L960 0L937.2 0C914.3 0 868.7 0 823 0C777.3 0 731.7 0 686 0C640.3 0 594.7 0 548.8 0C503 0 457 0 411.2 0C365.3 0 319.7 0 274 0C228.3 0 182.7 0 137 0C91.3 0 45.7 0 22.8 0L0 0Z" fill="#dbedde"></path><path d="M0 75L22.8 74C45.7 73 91.3 71 137 66.3C182.7 61.7 228.3 54.3 274 53C319.7 51.7 365.3 56.3 411.2 57.2C457 58 503 55 548.8 54.7C594.7 54.3 640.3 56.7 686 61C731.7 65.3 777.3 71.7 823 69.7C868.7 67.7 914.3 57.3 937.2 52.2L960 47L960 0L937.2 0C914.3 0 868.7 0 823 0C777.3 0 731.7 0 686 0C640.3 0 594.7 0 548.8 0C503 0 457 0 411.2 0C365.3 0 319.7 0 274 0C228.3 0 182.7 0 137 0C91.3 0 45.7 0 22.8 0L0 0Z" fill="#b8dbbd"></path><path d="M0 32L22.8 35.3C45.7 38.7 91.3 45.3 137 45.8C182.7 46.3 228.3 40.7 274 36.7C319.7 32.7 365.3 30.3 411.2 29.5C457 28.7 503 29.3 548.8 34C594.7 38.7 640.3 47.3 686 51.7C731.7 56 777.3 56 823 51.2C868.7 46.3 914.3 36.7 937.2 31.8L960 27L960 0L937.2 0C914.3 0 868.7 0 823 0C777.3 0 731.7 0 686 0C640.3 0 594.7 0 548.8 0C503 0 457 0 411.2 0C365.3 0 319.7 0 274 0C228.3 0 182.7 0 137 0C91.3 0 45.7 0 22.8 0L0 0Z" fill="#95c99d"></path><path d="M0 13L22.8 14C45.7 15 91.3 17 137 18.7C182.7 20.3 228.3 21.7 274 21.5C319.7 21.3 365.3 19.7 411.2 21.2C457 22.7 503 27.3 548.8 29.7C594.7 32 640.3 32 686 29.8C731.7 27.7 777.3 23.3 823 22.5C868.7 21.7 914.3 24.3 937.2 25.7L960 27L960 0L937.2 0C914.3 0 868.7 0 823 0C777.3 0 731.7 0 686 0C640.3 0 594.7 0 548.8 0C503 0 457 0 411.2 0C365.3 0 319.7 0 274 0C228.3 0 182.7 0 137 0C91.3 0 45.7 0 22.8 0L0 0Z" fill="#70b77e"></path></svg>