<svg id="visual" viewBox="0 0 960 300" width="960" height="300" xmlns="http://www.w3.org/2000/svg" xmlns:xlink="http://www.w3.org/1999/xlink" version="1.1"><rect x="0" y="0" width="960" height="300" fill="#FFFCF7"></rect><path d="M0 233L137 214L274 223L411 208L549 223L686 196L823 220L960 199L960 301L823 301L686 301L549 301L411 301L274 301L137 301L0 301Z" fill="#a1b5d8"></path><path d="M0 241L137 252L274 215L411 254L549 227L686 219L823 217L960 248L960 301L823 301L686 301L549 301L411 301L274 301L137 301L0 301Z" fill="#7d8eba"></path><path d="M0 238L137 231L274 263L411 241L549 255L686 250L823 234L960 232L960 301L823 301L686 301L549 301L411 301L274 301L137 301L0 301Z" fill="#5d679c"></path><path d="M0 272L137 260L274 252L411 250L549 279L686 259L823 262L960 270L960 301L823 301L686 301L549 301L411 301L274 301L137 301L0 301Z" fill="#42427c"></path><path d="M0 274L137 271L274 277L411 277L549 283L686 280L823 277L960 289L960 301L823 301L686 301L549 301L411 301L274 301L137 301L0 301Z" fill="#2a1e5c"></path></svg>