<?xml version="1.0" standalone="no"?>
<!DOCTYPE svg PUBLIC "-//W3C//DTD SVG 20010904//EN"
 "http://www.w3.org/TR/2001/REC-SVG-20010904/DTD/svg10.dtd">
<svg version="1.0" xmlns="http://www.w3.org/2000/svg"
 width="700.000000pt" height="700.000000pt" viewBox="0 0 700.000000 700.000000"
 preserveAspectRatio="xMidYMid meet">
<metadata>
Created by potrace 1.14, written by Peter Selinger 2001-2017
</metadata>
<g transform="translate(0.000000,700.000000) scale(0.100000,-0.100000)"
fill="#000000" stroke="none">
<path d="M2632 4314 c-162 -27 -297 -99 -421 -224 -75 -76 -189 -238 -230
-327 -14 -29 -27 -53 -31 -53 -3 0 -21 127 -40 283 l-35 282 -343 3 -342 2 0
-150 0 -150 190 0 190 0 0 -930 0 -930 -190 0 -190 0 0 -150 0 -150 640 0 640
0 0 150 0 150 -250 0 -250 0 0 530 0 529 35 96 c158 438 392 664 714 691 l81
7 0 -262 0 -261 160 0 c88 0 160 1 160 3 0 1 11 169 25 372 33 487 34 449 -12
463 -145 42 -343 53 -501 26z"/>
<path d="M4785 4319 c-475 -59 -833 -475 -905 -1052 -18 -144 -8 -452 20 -582
108 -507 404 -816 865 -901 136 -25 404 -15 540 19 118 30 209 64 308 113 81
41 201 116 211 133 6 9 -122 205 -165 255 -5 5 -38 -9 -76 -32 -98 -59 -248
-128 -319 -146 -209 -54 -447 -36 -603 44 -214 109 -353 350 -377 658 l-7 82
826 0 825 0 7 87 c9 106 0 308 -20 430 -33 203 -121 420 -228 558 -198 257
-529 380 -902 334z m317 -335 c202 -48 358 -220 418 -459 20 -78 40 -219 40
-282 l0 -33 -640 0 -640 0 0 23 c0 48 31 226 51 292 11 39 39 106 62 150 73
141 222 266 367 306 103 28 235 29 342 3z"/>
</g>
</svg>
